<svg xmlns="http://www.w3.org/2000/svg" viewBox="0 0 37 27" width="37" height="27">
	<defs>
		<clipPath clipPathUnits="userSpaceOnUse" id="cp1">
			<path d="M0 0L37 0L37 27L0 27Z" />
		</clipPath>
	</defs>
	<style>
		tspan { white-space:pre }
		.shp0 { fill: none;stroke: #4977ef;stroke-linecap:round;stroke-linejoin:round;stroke-width: 1.5 } 
	</style>
	<g id="Page 1" clip-path="url(#cp1)">
		<path id="Path 1" class="shp0" d="M22.94 10.29C22.94 10.52 22.92 10.75 22.88 10.97C22.56 13.23 20.62 14.98 18.26 14.99L18.25 14.99L18.25 14.98C18.25 14.98 18.24 14.98 18.25 14.99L18.24 14.99C15.88 14.98 13.93 13.23 13.61 10.96C13.57 10.75 13.55 10.52 13.55 10.29C13.55 9.52 13.74 8.78 14.08 8.15C14.1 8.12 14.12 8.09 14.13 8.06C14.19 7.97 14.25 7.86 14.3 7.75C14.3 7.75 14.31 7.75 14.31 7.74C15.15 6.46 16.59 5.6 18.25 5.6C19.93 5.6 21.41 6.49 22.23 7.83C22.29 7.93 22.35 8.03 22.4 8.13C22.75 8.77 22.94 9.52 22.94 10.29ZM18.25 14.98L18.25 14.99L18.25 14.99C18.24 14.98 18.25 14.98 18.25 14.98ZM27.63 24.37L27.63 26.25L8.86 26.25L8.86 24.37C8.86 23.39 9.01 22.45 9.29 21.56C10.48 17.76 14.04 14.99 18.24 14.99L18.26 14.99C20.85 15 23.18 16.04 24.88 17.74C25.93 18.79 26.74 20.09 27.2 21.56C27.48 22.45 27.63 23.39 27.63 24.37ZM18.24 14.99C14.04 14.99 10.48 17.76 9.29 21.56L0.75 21.56L0.75 19.68C0.75 14.5 4.95 10.29 10.14 10.29C11.37 10.29 12.54 10.53 13.61 10.96M18.25 14.98L18.25 14.99L18.25 14.99C18.24 14.98 18.25 14.98 18.25 14.98ZM14.83 5.6C14.83 6.37 14.64 7.1 14.31 7.74C14.31 7.75 14.3 7.75 14.3 7.75C14.26 7.86 14.2 7.97 14.12 8.06C14.12 8.09 14.1 8.12 14.08 8.14C13.24 9.44 11.79 10.29 10.14 10.29C7.54 10.29 5.44 8.19 5.44 5.6C5.44 3.01 7.54 0.91 10.14 0.91C12.73 0.91 14.83 3.01 14.83 5.6ZM18.25 14.99C18.24 14.98 18.25 14.98 18.25 14.98L18.25 14.99L18.25 14.99ZM22.88 10.97C23.96 10.53 25.13 10.29 26.36 10.29C28.95 10.29 31.3 11.34 33 13.04C34.7 14.74 35.75 17.09 35.75 19.68L35.75 21.56L27.2 21.56C26.74 20.09 25.93 18.79 24.88 17.74C23.18 16.04 20.85 15 18.26 14.99M31.06 5.6C31.06 8.19 28.96 10.29 26.36 10.29C24.7 10.29 23.24 9.43 22.4 8.13C22.35 8.03 22.29 7.93 22.23 7.82C21.88 7.17 21.67 6.41 21.67 5.6C21.67 3.01 23.77 0.91 26.36 0.91C28.96 0.91 31.06 3.01 31.06 5.6Z" />
	</g>
</svg>
