<svg xmlns="http://www.w3.org/2000/svg" viewBox="0 0 66 56" width="66" height="56">
	<defs>
		<clipPath clipPathUnits="userSpaceOnUse" id="cp1">
			<path d="M0 0L66 0L66 56L0 56Z" />
		</clipPath>
	</defs>
	<style>
		tspan { white-space:pre }
		.shp0 { fill: #000000;stroke: #f9d10d;stroke-width: 0.5 } 
	</style>
	<g id="Page 1" clip-path="url(#cp1)">
		<path id="Path 1" class="shp0" d="M7.95,14.95h7.9v-1.5h-7.9z" />
		<path id="Path 2" class="shp0" d="M17.65,14.95h1.5v-1.5h-1.5z" />
		<path id="Path 3" class="shp0" d="M20.85,14.95h1.5v-1.5h-1.5z" />
		<path id="Path 4" class="shp0" d="M7.95,19.55h4.8v-1.5h-4.8z" />
		<path id="Path 5" class="shp0" d="M14.55,19.55h2.9v-1.5h-2.9z" />
		<path id="Path 6" class="shp0" d="M19.35,19.55h11.1v-1.5h-11.1z" />
		<path id="Path 7" class="shp0" d="M39.75,38.25h5.6v-1.5h-5.6z" />
		<path id="Path 8" class="shp0" d="M27.05,38.25h10.9v-1.5h-10.9z" />
		<path id="Path 9" class="shp0" d="M7.95,38.25h17.1v-1.5h-17.1z" />
		<path id="Path 10" class="shp0" d="M41.65,28.85h1.5v-1.5h-1.5z" />
		<path id="Path 11" class="shp0" d="M44.85,28.85h1.5v-1.5h-1.5z" />
		<path id="Path 12" class="shp0" d="M24.95,28.85h14.7v-1.5h-14.7z" />
		<path id="Path 13" class="shp0" d="M17.45,28.85h5.8v-1.5h-5.8z" />
		<path id="Path 14" class="shp0" d="M48.15,28.85h9.8v-1.5h-9.8z" />
		<path id="Path 15" class="shp0" d="M17.45,24.25h7.6v-1.5h-7.6z" />
		<path id="Path 16" class="shp0" d="M39.35,24.25h18.5v-1.5h-18.5z" />
		<path id="Path 17" class="shp0" d="M26.75,24.25h1.5v-1.5h-1.5z" />
		<path id="Path 18" class="shp0" d="M29.95,24.25h1.5v-1.5h-1.5z" />
		<path id="Path 19" class="shp0" d="M33.15,24.25h1.5v-1.5h-1.5z" />
		<path id="Path 20" class="shp0" d="M36.35,24.25h1.5v-1.5h-1.5z" />
		<path id="Path 21" class="shp0" d="M17.65,33.55h11.3v-1.5h-11.3z" />
		<path id="Path 22" class="shp0" d="M30.75,33.55h6.2v-1.5h-6.2z" />
		<path id="Path 23" class="shp0" d="M11.15,33.55h1.5v-1.5h-1.5z" />
		<path id="Path 24" class="shp0" d="M7.95,33.55h1.5v-1.5h-1.5z" />
		<path id="Path 25" class="shp0" d="M14.35,33.55h1.5v-1.5h-1.5z" />
		<path id="Path 26" class="shp0" d="M65.85,2.55v43.2c0,1.6 -1.3,2.8 -2.8,2.8h-21.1v5.7h4.5v1.5h-26.8v-1.5h4.5v-5.7h-21.1c-1.6,0 -2.8,-1.3 -2.8,-2.8v-43.2c0,-1.5 1.2,-2.7 2.7,-2.7h60c1.5,0 2.8,1.2 2.9,2.7zM64.25,8.55h-62.5v33.8h62.5zM64.25,43.85h-62.5v1.9c0,0.7 0.5,1.3 1.2,1.3h60c0.7,0 1.3,-0.6 1.3,-1.3zM40.35,48.45h-14.8v5.7h14.8zM64.25,2.55c0,-0.7 -0.6,-1.3 -1.3,-1.3h-60c-0.6,0 -1.2,0.6 -1.2,1.3v4.5h62.5z" />
	</g>
</svg>
